<?xml version="1.0" standalone="no"?>
<!DOCTYPE svg PUBLIC "-//W3C//DTD SVG 20010904//EN"
 "http://www.w3.org/TR/2001/REC-SVG-20010904/DTD/svg10.dtd">
<svg version="1.0" xmlns="http://www.w3.org/2000/svg"
 width="300.000000pt" height="90.000000pt" viewBox="0 0 300.000000 90.000000"
 preserveAspectRatio="xMidYMid meet">
<metadata>
Created by potrace 1.16, written by Peter Selinger 2001-2019
</metadata>
<g transform="translate(0.000000,90.000000) scale(0.100000,-0.100000)" stroke-width="15" stroke="#9747FF" >
<path d="M591 876 c-25 -29 -84 -47 -184 -55 -70 -6 -120 -16 -155 -31 -59
-25 -117 -86 -131 -136 -17 -60 10 -124 52 -124 19 0 19 1 4 18 -21 23 -22 93
-3 130 37 71 113 113 214 120 l74 5 -25 -49 c-14 -27 -33 -77 -42 -111 l-18
-63 -54 0 c-47 0 -54 -3 -51 -17 3 -14 14 -18 51 -17 26 0 47 -1 47 -4 0 -9
-53 -213 -67 -257 -22 -72 -80 -163 -113 -180 -48 -25 -97 -19 -131 14 -25 26
-29 37 -29 86 0 30 6 70 14 89 22 53 74 105 112 112 39 7 36 24 -5 24 -124 0
-202 -250 -106 -340 39 -37 121 -40 178 -7 90 53 138 159 202 454 4 16 15 23
45 28 55 9 61 25 9 25 l-41 0 6 38 c10 52 36 133 53 158 8 12 33 27 56 32 41
11 87 43 87 62 0 15 -36 12 -49 -4z" fill="#9747FF"  />
<path d="M1285 816 c-47 -47 -94 -187 -120 -361 -33 -218 -8 -357 39 -222 56
161 162 327 209 327 46 0 47 -116 2 -235 -44 -117 -105 -173 -121 -110 -9 34
13 118 42 161 30 43 31 53 3 28 -34 -30 -69 -114 -69 -165 0 -142 154 -80 208
84 23 71 29 167 12 211 -5 14 -20 32 -34 41 -21 14 -31 15 -60 5 -46 -15 -85
-63 -146 -180 -27 -52 -49 -90 -50 -83 -1 56 76 380 111 459 25 59 12 78 -26
40z" fill="#9747FF" />
<path d="M1717 811 c-63 -75 -119 -306 -121 -496 -1 -108 2 -130 14 -133 10
-2 19 12 28 40 27 88 112 248 155 293 48 49 58 53 81 29 30 -29 14 -144 -36
-254 -33 -73 -54 -100 -78 -100 -20 0 -30 19 -30 55 0 33 37 130 55 145 8 7
15 17 15 23 0 6 -13 -2 -30 -18 -55 -52 -80 -184 -42 -218 75 -68 200 83 210
253 4 85 -6 122 -42 146 -59 38 -135 -27 -209 -177 -26 -52 -47 -85 -47 -74 0
42 59 305 90 396 38 115 38 111 24 116 -6 2 -23 -10 -37 -26z" fill="#9747FF" />
<path d="M2157 811 c-63 -75 -119 -306 -121 -496 -1 -108 2 -130 14 -133 10
-2 19 12 28 40 27 88 112 248 155 293 48 49 58 53 81 29 30 -29 14 -144 -36
-254 -33 -73 -54 -100 -78 -100 -20 0 -30 19 -30 55 0 33 37 130 55 145 8 7
15 17 15 23 0 6 -13 -2 -30 -18 -55 -52 -80 -184 -42 -218 75 -68 200 83 210
253 4 85 -6 122 -42 146 -59 38 -135 -27 -209 -177 -26 -52 -47 -85 -47 -74 0
42 59 305 90 396 38 115 38 111 24 116 -6 2 -23 -10 -37 -26z" fill="#9747FF" />
<path d="M2611 800 c-34 -48 -82 -188 -112 -330 -27 -132 -30 -316 -6 -372 33
-78 99 -86 144 -19 31 45 21 52 -16 12 -17 -19 -38 -31 -48 -29 -36 7 -44 45
-39 188 5 154 31 277 94 460 22 63 38 118 36 122 -10 16 -25 7 -53 -32z" fill="#9747FF"/>
<path d="M1070 731 c-12 -23 -14 -81 -2 -81 13 0 54 79 47 90 -10 16 -34 11
-45 -9z" fill="#9747FF" />
<path d="M551 615 c-20 -27 -41 -104 -41 -155 0 -47 26 -37 34 13 4 23 18 66
32 94 34 70 17 101 -25 48z" fill="#9747FF"/>
<path d="M819 551 c-34 -37 -74 -95 -103 -151 -26 -50 -49 -90 -51 -88 -5 5
22 143 41 206 18 65 7 89 -26 57 -53 -53 -93 -395 -47 -395 7 0 24 33 39 73
32 84 106 217 149 267 l30 35 -6 -40 c-6 -44 5 -97 22 -102 6 -2 13 19 17 49
4 29 16 73 27 97 10 24 19 45 19 47 0 2 -12 4 -27 4 -20 0 -42 -15 -84 -59z" fill="#9747FF"/>
<path d="M2866 580 c-70 -21 -126 -81 -164 -173 -31 -75 -34 -165 -8 -215 22
-42 75 -66 125 -57 50 9 142 105 101 105 -5 0 -17 -11 -26 -26 -22 -33 -70
-57 -100 -50 -43 11 -57 47 -52 134 5 89 40 177 91 230 34 35 80 44 91 16 19
-49 -66 -176 -126 -189 -27 -6 -29 -9 -14 -17 47 -26 129 21 165 95 47 96 4
172 -83 147z" fill="#9747FF"/>
<path d="M1021 549 c-34 -37 -56 -142 -56 -268 0 -77 4 -115 11 -118 8 -3 14
18 19 59 8 78 39 218 60 278 23 66 6 92 -34 49z" fill="#9747FF"/>
</g>
</svg>


